<?xml version="1.0" encoding="UTF-8" standalone="no"?>
<!DOCTYPE svg PUBLIC "-//W3C//DTD SVG 1.1//EN" "http://www.w3.org/Graphics/SVG/1.1/DTD/svg11.dtd">
<svg width="100%" height="100%" viewBox="0 0 150 150" version="1.1" xmlns="http://www.w3.org/2000/svg" xmlns:xlink="http://www.w3.org/1999/xlink" xml:space="preserve" xmlns:serif="http://www.serif.com/" style="fill-rule:evenodd;clip-rule:evenodd;stroke-linecap:round;stroke-linejoin:round;stroke-miterlimit:1.5;">
    <g transform="matrix(2.31911,0,0,3.44908,-47.0216,-165.357)">
        <path d="M22.34,81.081L22.34,83.553L25.952,83.553C26.784,83.553 27.384,83.425 27.752,83.169C28.12,82.913 28.3,82.437 28.292,81.741L28.292,80.049L20.276,80.049L20.276,78.321L30.752,78.321L30.752,81.777C30.72,83.057 30.248,83.969 29.336,84.513C28.424,85.057 27.584,85.329 26.816,85.329L20.276,85.329L20.276,81.081L22.34,81.081Z" style="fill:white;fill-rule:nonzero;"/>
        <path d="M34.184,85.329L32.084,85.329L32.084,78.345L40.448,78.345C41.04,78.353 41.49,78.511 41.798,78.819C42.106,79.127 42.316,79.385 42.428,79.593L45.116,85.329L42.908,85.329L40.604,80.913C40.516,80.777 40.348,80.607 40.1,80.403C39.852,80.199 39.556,80.097 39.212,80.097L34.172,80.097L34.184,81.141L34.184,85.329ZM38.372,85.329L36.272,85.329L36.272,80.961L38.372,80.961L38.372,85.329Z" style="fill:white;fill-rule:nonzero;"/>
        <path d="M48.043,78.345L50.592,80.42L57.216,75.375L84.956,75.383L81.757,77.048C82.301,77.056 58.21,76.903 58.21,76.903L51.863,81.838L57.868,86.66L82.569,86.784L84.956,88.288C84.956,88 56.878,88.249 56.878,88.249C56.878,88.249 50.824,83.057 50.472,83.057L48.019,85.329L45.447,85.329L48.993,81.837L45.116,78.345L48.043,78.345Z" style="fill:white;fill-rule:nonzero;"/>
        <path d="M58.1,82.689L58.1,78.321L68.564,78.321L68.564,80.097L60.5,80.097L60.5,80.961L68.564,80.961L68.564,81.777C68.532,83.057 68.06,83.969 67.148,84.513C66.236,85.057 65.396,85.329 64.628,85.329L58.1,85.329L58.1,83.553L63.764,83.553C64.596,83.553 65.196,83.425 65.564,83.169C65.932,82.913 66.116,82.753 66.116,82.689L58.1,82.689Z" style="fill:white;fill-rule:nonzero;"/>
        <path d="M71.06,80.073L71.06,85.329L73.148,85.329L73.148,78.357L71.06,78.357L69.908,78.345L69.908,80.073L71.06,80.073Z" style="fill:white;fill-rule:nonzero;"/>
        <path d="M84.956,82.689L84.956,81.873C84.924,80.593 84.452,79.681 83.54,79.137C82.628,78.593 81.788,78.321 81.02,78.321L74.492,78.321L74.492,80.097L80.156,80.097C80.988,80.097 81.588,80.225 81.956,80.481C82.324,80.737 82.524,80.897 82.556,80.961L74.492,80.961L74.492,85.329L84.956,85.329L84.956,83.553L76.94,83.553L76.94,82.689L84.956,82.689Z" style="fill:white;fill-rule:nonzero;"/>
    </g>
    <path d="M75,10.851C95.268,10.851 111.722,27.306 111.722,47.573C111.722,67.841 95.268,84.296 75,84.296C54.732,84.296 38.278,67.841 38.278,47.573C38.278,27.306 54.732,10.851 75,10.851ZM75,18.351C58.872,18.351 45.778,31.445 45.778,47.573C45.778,63.701 58.872,76.796 75,76.796C91.128,76.796 104.222,63.701 104.222,47.573C104.222,31.445 91.128,18.351 75,18.351Z" style="fill:rgb(0,153,255);"/>
    <g transform="matrix(1,0,0,1,-30.7784,-1.01355)">
        <circle cx="89.928" cy="42.714" r="5.873" style="fill:rgb(0,153,255);stroke:rgb(0,153,255);stroke-width:1px;"/>
    </g>
    <g transform="matrix(1,0,0,1,0.921887,-1.01355)">
        <circle cx="89.928" cy="42.714" r="5.873" style="fill:rgb(0,153,255);stroke:rgb(0,153,255);stroke-width:1px;"/>
    </g>
    <g transform="matrix(1,0,0,1,-2.44155,16.4019)">
        <circle cx="89.928" cy="42.714" r="5.873" style="fill:rgb(0,153,255);stroke:rgb(0,153,255);stroke-width:1px;"/>
    </g>
    <g transform="matrix(1,0,0,1,-27.4149,16.4019)">
        <circle cx="89.928" cy="42.714" r="5.873" style="fill:rgb(0,153,255);stroke:rgb(0,153,255);stroke-width:1px;"/>
    </g>
    <g transform="matrix(1,0,0,1,-14.9282,-11.7459)">
        <circle cx="89.928" cy="42.714" r="5.873" style="fill:rgb(0,153,255);stroke:rgb(0,153,255);stroke-width:1px;"/>
    </g>
</svg>
